<?xml version="1.0" encoding="utf-8"?>
<!-- Generator: Adobe Illustrator 17.1.0, SVG Export Plug-In . SVG Version: 6.00 Build 0)  -->
<!DOCTYPE svg PUBLIC "-//W3C//DTD SVG 1.1//EN" "http://www.w3.org/Graphics/SVG/1.1/DTD/svg11.dtd">
<svg version="1.1" id="Layer_1" xmlns="http://www.w3.org/2000/svg" xmlns:xlink="http://www.w3.org/1999/xlink" x="0px" y="0px"
	 viewBox="0 0 693.04 467" style="enable-background:new 0 0 693.04 467;" xml:space="preserve">

<path style="fill:#455942;" d="M132.151,337.35c1.417,1.416,3.3,2.196,5.303,2.196s3.887-0.78,5.303-2.196
	c2.322-2.322,11.027-17.489,16.293-26.9c-9.411,5.267-24.578,13.972-26.899,16.293c-1.417,1.417-2.197,3.3-2.197,5.304
	S130.734,335.933,132.151,337.35z"/>
<path style="fill:#455942;" d="M164.635,374.925c-2.278,4.886-8.086,6.999-12.971,4.721c-4.886-2.278-6.999-8.086-4.721-12.971
	c2.278-4.886,25.346-31.26,25.346-31.26S166.913,370.04,164.635,374.925z"/>
<path style="fill:#455942;" d="M180.513,315.935c1.106,0.795,2.408,1.215,3.765,1.215c2.082,0,4.048-1.009,5.26-2.697
	c1.536-2.139,6.395-14.863,10.15-25.229c-8.621,6.874-19.123,15.547-20.658,17.686C176.951,309.806,177.616,313.855,180.513,315.935
	z"/>
<path style="fill:#F2F25F;" d="M259.268,323.967c-0.003-0.003-0.007-0.006-0.011-0.009c-1.761,1.048-3.59,2.118-5.376,3.164
	c-3.69,2.16-8.585,5.025-10.306,6.276c-0.392,2.204-1.547,3.852-3.268,4.61c-0.646,0.284-1.339,0.429-2.061,0.429
	c-1.507,0-3.076-0.64-4.537-1.852c-1.63-1.352-3.096-3.385-4.127-5.727c-1.031-2.341-1.542-4.795-1.439-6.911
	c0.137-2.812,1.378-4.937,3.404-5.829c0.646-0.284,1.339-0.429,2.061-0.429c1.172,0,2.381,0.387,3.548,1.129
	c1.258-0.257,3.731-0.97,6.39-1.773l5.588-9.339c-3.656-2.081-8.286-4.709-10.159-5.544c-0.85,0.311-1.681,0.468-2.483,0.468
	c-1.171,0-2.259-0.344-3.147-0.994c-1.786-1.308-2.539-3.651-2.066-6.426c0.355-2.088,1.384-4.374,2.896-6.438
	c1.512-2.064,3.382-3.733,5.265-4.702c1.241-0.638,2.453-0.961,3.604-0.961c1.171,0,2.259,0.344,3.147,0.994
	c1.518,1.112,2.289,2.97,2.197,5.207c1.229,1.387,4.545,4.49,7.454,7.187l7.936-13.264c-0.017-0.25-0.036-0.484-0.056-0.678
	c-1.712-1.442-2.563-3.265-2.359-5.135c0.24-2.201,1.892-4.024,4.532-5.003c1.405-0.521,3.077-0.798,4.842-0.815l25.391-42.436
	l-22.614-1.468l49.561-182.93l-87.791,183.603l-38.65,0.752l54.777-177.592L135.185,248.962l114.453,2.248l-59.773,86.335
	l26.965,1.75l-34.541,114.987L259.268,323.967z"/>
<path style="fill:#455942;" d="M301.024,293.31c-0.896-0.743-1.808-1.162-2.622-1.162c-0.299,0-0.585,0.056-0.852,0.174
	c-0.994,0.438-1.539,1.64-1.617,3.23c-0.049,1.009-11.512,7.285-19.655,12.244c-1.194-1.486-2.799-2.639-4.663-3.28
	c2.28-9.268,4.825-22.195,5.777-22.548c1.492-0.553,2.474-1.435,2.592-2.515c0.118-1.08-0.651-2.153-1.989-3.015
	c-1.338-0.862-3.245-1.513-5.405-1.749c-0.575-0.063-1.139-0.093-1.685-0.093c-1.505,0-2.875,0.229-3.97,0.635
	c-1.492,0.553-2.474,1.435-2.592,2.515c-0.118,1.08,0.651,2.153,1.989,3.015c0.853,0.549,0.551,13.721,0.779,23.263
	c-1.958,0.224-3.774,1.004-5.261,2.197c-6.883-6.598-16.722-15.199-16.552-16.195c0.267-1.569-0.006-2.861-0.882-3.503
	c-0.383-0.281-0.851-0.414-1.374-0.414c-0.672,0-1.436,0.22-2.232,0.629c-1.416,0.728-2.933,2.054-4.217,3.807
	s-2.091,3.599-2.358,5.168c-0.267,1.569,0.006,2.861,0.882,3.503c0.383,0.281,0.851,0.414,1.374,0.414
	c0.672,0,1.436-0.22,2.232-0.629c0.029-0.015,0.069-0.022,0.12-0.022c1.493,0,12.084,6.417,20.16,10.84
	c-0.482,1.012-0.807,2.118-0.936,3.294c-0.097,0.893-0.076,1.772,0.05,2.622c-8.467,2.478-19.441,6.183-21.563,6.183
	c-0.161,0-0.271-0.021-0.325-0.066c-0.896-0.743-1.808-1.162-2.622-1.162c-0.299,0-0.585,0.056-0.852,0.174
	c-0.994,0.438-1.539,1.64-1.617,3.23c-0.078,1.59,0.312,3.567,1.188,5.555s2.071,3.61,3.297,4.626
	c0.896,0.743,1.808,1.161,2.622,1.161c0.299,0,0.585-0.056,0.852-0.174c0.994-0.438,1.539-1.64,1.617-3.23
	c0.048-0.988,11.041-7.027,19.145-11.934c1.204,1.723,2.927,3.073,4.971,3.801c-2.226,9.191-4.651,21.374-5.574,21.717
	c-1.492,0.553-2.474,1.435-2.592,2.515c-0.118,1.08,0.651,2.153,1.989,3.015c1.338,0.862,3.245,1.513,5.405,1.749
	c0.575,0.063,1.139,0.093,1.685,0.093c1.505,0,2.875-0.229,3.97-0.635c1.492-0.553,2.474-1.435,2.592-2.515
	c0.118-1.08-0.651-2.153-1.989-3.015c-0.828-0.533-0.568-12.953-0.76-22.408c2.153-0.27,4.127-1.217,5.674-2.64
	c6.855,6.539,16.287,14.806,16.121,15.782c-0.267,1.569,0.006,2.861,0.882,3.503c0.383,0.281,0.851,0.414,1.374,0.414
	c0.672,0,1.436-0.22,2.232-0.629c1.416-0.728,2.933-2.054,4.217-3.807c1.284-1.752,2.091-3.599,2.358-5.168
	s-0.006-2.861-0.882-3.503c-0.383-0.281-0.851-0.414-1.374-0.414c-0.672,0-1.436,0.22-2.232,0.629
	c-0.029,0.015-0.069,0.022-0.12,0.022c-1.479,0-11.887-6.298-19.933-10.715c0.306-0.802,0.517-1.656,0.615-2.549
	c0.128-1.176,0.049-2.326-0.203-3.418c8.5-2.478,19.669-6.255,21.81-6.255c0.161,0,0.271,0.021,0.325,0.066
	c0.896,0.743,1.808,1.162,2.622,1.162c0.299,0,0.585-0.057,0.852-0.174c0.994-0.438,1.539-1.64,1.617-3.23
	c0.077-1.59-0.312-3.567-1.188-5.555C303.445,295.949,302.25,294.326,301.024,293.31z M273.707,314.821
	c-0.305,2.794-2.678,4.871-5.427,4.871c-0.197,0-0.396-0.011-0.597-0.033c-2.995-0.327-5.165-3.029-4.838-6.023
	c0.305-2.794,2.678-4.871,5.427-4.871c0.197,0,0.396,0.011,0.597,0.033C271.863,309.124,274.034,311.826,273.707,314.821z"/>
<g>
	<path style="fill:#455942;" d="M305.374,223c-0.002,0.158-0.011,0.318-0.011,0.476c0,0.671,0.161,1.25,0.465,1.796
		c4.771,0.071,9.555,0.142,14.346,0.215c0.171-0.065,0.345-0.123,0.515-0.191c1.663-0.662,3.307-1.445,4.936-2.296H305.374z"/>
	<path style="fill:#455942;" d="M341.659,211.736c-11.607,0.174-23.126,0.341-34.458,0.501c-0.175,0.586-0.359,1.167-0.513,1.763
		h32.176c0.669-0.529,1.344-1.068,2.024-1.621C341.138,212.176,341.404,211.947,341.659,211.736z"/>
	<path style="fill:#455942;" d="M370.155,223c-0.319,1.205-0.501,2.292-0.563,3.268c0.417,0.007,0.835,0.014,1.252,0.021
		c0.25-0.11,0.51-0.229,0.792-0.373c1.478-0.754,2.994-1.741,4.517-2.915H370.155z"/>
	<path style="fill:#455942;" d="M370.157,212.218c0.161-0.317,0.34-0.612,0.504-0.925c-7.591,0.119-15.18,0.236-22.741,0.35
		c-0.935,0.829-1.841,1.609-2.729,2.358h24.099C369.568,213.406,369.855,212.812,370.157,212.218z"/>
	<path style="fill:#455942;" d="M316.58,203c-0.649-0.837-1.233-1.732-1.728-2.692c-0.022-0.042-0.039-0.084-0.06-0.126
		c-0.673,0.01-1.346,0.021-2.019,0.031c-0.049,0.07-0.098,0.135-0.147,0.206c-0.542,0.793-1.072,1.66-1.587,2.58H316.58z"/>
	<path style="fill:#455942;" d="M409.717,213.645c0.034,0.125,0.086,0.234,0.125,0.355h13.008c0.628-0.365,1.257-0.749,1.885-1.165
		c1.134-0.753,2.279-1.586,3.426-2.489c-6.218,0.108-12.484,0.214-18.784,0.32c-0.004,0.165-0.014,0.333-0.014,0.495
		C409.362,211.959,409.481,212.793,409.717,213.645z"/>
	<path style="fill:#455942;" d="M405.362,211.161c0-0.141,0.009-0.286,0.012-0.428c-4.672,0.078-9.36,0.155-14.057,0.231
		c-0.403,0.78-0.818,1.552-1.256,2.312c-0.14,0.243-0.296,0.483-0.443,0.725h16.07C405.474,213.041,405.362,212.094,405.362,211.161
		z"/>
	<path style="fill:#455942;" d="M462.406,209.732c-9.15,0.17-18.485,0.338-27.95,0.504c-0.098,0.089-0.196,0.183-0.294,0.271
		c-1.399,1.266-2.798,2.423-4.197,3.493h15.124c0.618-0.642,1.192-1.25,1.7-1.813c0.278-0.308,0.54-0.599,0.789-0.878
		c0.007,0.013,0.013,0.026,0.019,0.039c0.373,0.706,0.892,1.576,1.555,2.612c0.008,0.013,0.017,0.027,0.026,0.041h15.762
		C464.077,212.552,463.235,211.132,462.406,209.732z"/>
	<path style="fill:#455942;" d="M384.838,214c0.642-0.901,1.234-1.809,1.757-2.72c0.046-0.08,0.088-0.163,0.133-0.243
		c-3.826,0.062-7.657,0.123-11.489,0.183c-0.516,0.91-1.019,1.834-1.5,2.78H384.838z"/>
	<path style="fill:#455942;" d="M390.452,203c0.477-1.328,0.821-2.696,1.039-4.093c-2.171,0.039-4.351,0.078-6.542,0.116
		c-1.045,0.895-2.117,1.907-3.21,3.037l-0.023,0.024l-0.024,0.024c-0.27,0.269-0.548,0.571-0.831,0.891H390.452z"/>
	<path style="fill:#455942;" d="M535.86,223.165c-0.787,0-1.545,0.135-2.27,0.404c-0.727,0.271-1.4,0.602-2.021,0.996
		c-0.623,0.395-1.203,0.839-1.742,1.337c-0.539,0.498-1.018,0.975-1.43,1.431c-0.712,0.756-1.424,1.445-2.136,2.076
		c4.149,0.11,8.117,0.219,11.897,0.328c0.615-1.145,0.937-2.378,0.937-3.711c0-0.829-0.229-1.513-0.684-2.053
		C537.953,223.436,537.104,223.165,535.86,223.165z"/>
	<path style="fill:#455942;" d="M303.02,212.296c-4.703,0.066-9.371,0.131-13.997,0.194c-0.128,0.504-0.245,1.007-0.354,1.51h13.916
		C302.721,213.429,302.866,212.861,303.02,212.296z"/>
	<path style="fill:#455942;" d="M159.94,214h124.651c0.096-0.485,0.204-0.969,0.315-1.454
		C234.873,213.226,190.073,213.743,159.94,214z"/>
	<path style="fill:#455942;" d="M555.095,183.138c0.416,1.112,0.626,2.378,0.626,3.764c0,2.004-0.656,3.81-1.899,5.223
		c-0.175,0.199-0.364,0.382-0.553,0.567c0.337,0.486,0.718,0.964,1.147,1.436c-0.276,0.177-1.634,0.359-3.954,0.545
		c-0.045,0.022-0.086,0.049-0.131,0.07c-1.178,0.561-2.45,0.972-3.783,1.222c-1.11,0.208-2.146,0.36-3.079,0.453l-0.064,0.006
		l-0.064,0.004c-3.036,0.203-6.113,0.48-9.146,0.823c-3.112,0.353-5.933,0.686-8.386,0.99c-2.431,0.301-4.482,0.569-6.095,0.796
		c-0.129,0.503-0.267,1.039-0.412,1.607c-0.193,0.753-0.392,1.542-0.594,2.354h62.704c16.579,0,30.218-6.863,30.218-15.4
		c0-8.538-13.44-15.387-30.018-15.387c-12.265,0-22.806,3.81-27.464,9.248C554.537,181.983,554.87,182.537,555.095,183.138z"/>
	<path style="fill:#455942;" d="M410.672,203h25.583c0.77-0.764,1.54-1.762,2.308-2.557l1.179-1.443h0.088
		c0.437,0,0.925-0.714,1.458-1.219c0.002-0.017,0.005,0.08,0.007,0.064c-9.498,0.194-19.378,0.443-29.551,0.635
		c-0.232,0.993-0.473,2.027-0.728,3.047C410.898,202,410.786,202.517,410.672,203z"/>
	<path style="fill:#455942;" d="M331.771,203h19.607c1.025-0.969,2.065-1.927,3.118-2.846c0.243-0.212,0.487-0.416,0.73-0.62
		c-7.319,0.122-14.699,0.242-22.114,0.36c-0.173,0.587-0.375,1.163-0.615,1.72C332.285,202.101,332.037,202.558,331.771,203z"/>
	<path style="fill:#455942;" d="M551.604,187.891c0.07-0.312,0.117-0.636,0.117-0.988c0-0.14-0.023-0.258-0.029-0.393
		c-0.059,0.396-0.098,0.794-0.098,1.198C551.594,187.769,551.602,187.829,551.604,187.891z"/>
	<path style="fill:#455942;" d="M462.41,199.408c-0.127,0.11-0.246,0.215-0.356,0.313c0.177,1.166,0.539,2.25,1.07,3.278h25.822
		c0.313-0.268,0.636-0.538,0.943-0.805c0.906-0.784,1.77-1.553,2.585-2.301c-1.343-0.125-2.622-0.404-3.809-0.831
		c-1.307-0.47-2.458-1.172-3.44-2.082c-6.535,0.16-13.419,0.32-20.615,0.48C463.863,198.132,463.124,198.788,462.41,199.408z"/>
	<path style="fill:#455942;" d="M437.959,226.134c-0.508,0.448-1.027,0.88-1.547,1.31c5.622,0.106,11.158,0.213,16.599,0.32
		c-0.245-0.443-0.515-0.913-0.819-1.42c-0.598-0.995-1.286-2.114-2.043-3.323c-0.005-0.007-0.009-0.014-0.014-0.022h-8.673
		C440.296,224.055,439.126,225.103,437.959,226.134z"/>
	<path style="fill:#455942;" d="M467.006,209.646c0.492,0.829,0.973,1.642,1.477,2.488c0.378,0.636,0.742,1.252,1.105,1.866h5.594
		c1.312-0.964,2.685-1.999,4.132-3.131c0.621-0.485,1.257-0.991,1.89-1.495C476.531,209.465,471.797,209.556,467.006,209.646z"/>
	<path style="fill:#455942;" d="M487.726,209.247c-0.171,0.14-0.335,0.28-0.507,0.42c-1.816,1.486-3.62,2.93-5.415,4.333h15.177
		c0.086-0.088,0.167-0.17,0.253-0.258c0.237-0.245,0.464-0.489,0.695-0.733c-0.08,0.333-0.153,0.66-0.23,0.991h14.344
		c0.199-0.917,0.404-1.851,0.617-2.809c0.185-0.831,0.372-1.65,0.56-2.467C505.003,208.9,496.486,209.074,487.726,209.247z"/>
	<path style="fill:#455942;" d="M516.331,196.137c-4.904,0.151-10.206,0.302-15.872,0.454c0.138,0.116,0.245,0.241,0.289,0.387
		c0.031,0.102,0.03,0.224,0.046,0.336c-0.255,0.259-0.509,0.516-0.792,0.815c-0.768,0.809-1.731,1.773-2.893,2.893
		c-0.662,0.642-1.365,1.302-2.104,1.978h19.584c0.287-1.161,0.568-2.289,0.839-3.347
		C515.776,198.292,516.075,197.126,516.331,196.137z"/>
	<path style="fill:#455942;" d="M514.109,225.715c0,0.359,0.031,1.015,0.18,2.098c0.06,0.439,0.157,0.871,0.272,1.296
		c1.742,0.043,3.465,0.086,5.157,0.129c0.737-0.439,1.515-0.956,2.331-1.554c1.115-0.819,2.263-1.851,3.412-3.069
		c0.469-0.517,1-1.047,1.614-1.616h-12.706C514.157,224.46,514.109,225.283,514.109,225.715z"/>
	<path style="fill:#455942;" d="M491.554,227.021c0-0.71,0.036-1.47,0.109-2.275c-0.555,0.492-1.162,1.023-1.823,1.596
		c-0.779,0.676-1.615,1.395-2.479,2.135c1.415,0.031,2.817,0.062,4.211,0.093C491.561,228.032,491.554,227.51,491.554,227.021z"/>
	<path style="fill:#455942;" d="M510.326,228.359c-0.146-1.057-0.218-1.938-0.218-2.644c0-0.696,0.076-1.607,0.223-2.715h-14.418
		c-0.237,1.512-0.359,2.856-0.359,4.021c0,0.514,0.008,1.068,0.021,1.639c5.123,0.116,10.088,0.232,14.878,0.348
		C510.412,228.792,510.357,228.579,510.326,228.359z"/>
	<path style="fill:#455942;" d="M649.503,182.85c-16.579,0-30.018,6.896-30.018,15.434c0,2.34,1.015,4.644,2.823,6.632
		c-1.711,1.098-44.749,2.422-104.963,3.721c-0.262,1.121-0.523,2.261-0.781,3.424c-0.146,0.654-0.285,1.295-0.426,1.939h133.166
		c16.579,0,30.218-7.105,30.218-15.642C679.522,189.82,666.082,182.85,649.503,182.85z"/>
	<path style="fill:#455942;" d="M611.33,223h-68.887c0.413,0.922,0.651,1.936,0.651,3.026c0,1.337-0.216,2.618-0.632,3.837
		c25.196,0.755,40.855,1.485,41.873,2.138c-1.807,1.988-2.823,4.209-2.823,6.549c0,8.538,13.44,15.458,30.018,15.458
		c16.579,0,30.018-6.923,30.018-15.461C641.549,230.01,627.909,223,611.33,223z"/>
	<path style="fill:#455942;" d="M444.518,200.462c-0.809,0.747-1.503,1.431-2.083,2.053c-0.184,0.197-0.334,0.351-0.468,0.485
		h16.831c-0.539-1.528-0.849-3.135-0.876-4.839c0.161-0.175,0.35-0.367,0.551-0.565c-4.281,0.093-8.656,0.186-13.126,0.278
		c-0.1,0.697-0.176,1.386-0.224,2.065C444.922,200.114,444.715,200.28,444.518,200.462z"/>
	<path style="fill:#455942;" d="M283.761,223H121.967c37.385,0.318,97.346,1.03,161.871,1.952
		C283.788,224.307,283.771,223.654,283.761,223z"/>
	<path style="fill:#455942;" d="M289.279,200.569c-77.453,1.15-153.082,2.055-197.23,2.431h196.097
		C288.506,202.189,288.882,201.378,289.279,200.569z"/>
	<path style="fill:#455942;" d="M487.586,223H454.84c0.269,0.439,0.535,0.875,0.781,1.285c0.622,1.037,1.129,1.95,1.523,2.737
		c0.161,0.323,0.281,0.593,0.376,0.832c8.194,0.164,16.149,0.328,23.821,0.493c2.137-1.807,4.103-3.487,5.877-5.026
		C487.349,223.208,487.46,223.11,487.586,223z"/>
	<path style="fill:#455942;" d="M320.894,201.861c0.536,0.525,1.156,0.897,1.848,1.139h3.526c0.356-0.158,0.684-0.363,0.971-0.641
		c0.663-0.642,1.191-1.42,1.586-2.333c0.009-0.021,0.014-0.044,0.023-0.065c-3.142,0.05-6.288,0.099-9.439,0.149
		C319.855,200.74,320.347,201.326,320.894,201.861z"/>
	<path style="fill:#455942;" d="M435.313,223.134c0.05-0.044,0.098-0.09,0.148-0.134H396.34c0.346,1.316,0.857,2.566,1.535,3.747
		c10.904,0.189,21.632,0.382,32.098,0.577C431.807,226.046,433.589,224.654,435.313,223.134z"/>
	<path style="fill:#455942;" d="M357.328,203h18.424c1.086-1.486,2.124-2.732,3.113-3.72c0.052-0.054,0.102-0.099,0.154-0.152
		c-5.588,0.098-11.233,0.194-16.919,0.29c-0.368,0.231-0.739,0.472-1.118,0.733C359.783,200.977,358.564,201.933,357.328,203z"/>
	<path style="fill:#455942;" d="M394.654,203h11.907c0.186-0.812,0.376-1.619,0.574-2.414c0.168-0.672,0.324-1.323,0.48-1.973
		c-3.985,0.074-8.014,0.148-12.079,0.222C395.352,200.248,395.063,201.637,394.654,203z"/>
	<path style="fill:#455942;" d="M306.518,203c0.474-0.952,0.962-1.856,1.466-2.713c-4.728,0.072-9.458,0.144-14.184,0.215
		c-0.438,0.831-0.853,1.664-1.251,2.499H306.518z"/>
	<path style="fill:#455942;" d="M366.05,223h-12.9c-0.154,1.005-0.257,2.004-0.304,2.996c4.259,0.068,8.51,0.137,12.748,0.206
		C365.645,225.207,365.797,224.14,366.05,223z"/>
	<path style="fill:#455942;" d="M395.71,223h-13.441c-0.924,0.887-1.861,1.722-2.813,2.498c-0.393,0.32-0.785,0.619-1.178,0.915
		c4.907,0.082,9.79,0.165,14.642,0.249c0.101-0.119,0.214-0.236,0.314-0.355C394.213,225.141,395.033,224.041,395.71,223z"/>
	<path style="fill:#455942;" d="M301.555,225.209c-0.124-0.557-0.192-1.133-0.192-1.733c0-0.158,0.009-0.318,0.011-0.476H287.76
		c0.012,0.677,0.047,1.348,0.107,2.01C292.412,225.075,296.976,225.142,301.555,225.209z"/>
	<path style="fill:#455942;" d="M350.24,223h-16.833c-1.389,0.938-2.793,1.82-4.217,2.625c5.853,0.09,11.709,0.181,17.556,0.274
		c0.527-0.438,1.048-0.854,1.578-1.303C349.024,224.013,349.658,223.485,350.24,223z"/>
</g>
<path style="fill:#455942;" d="M316.66,177.752c0.454,4.23,0.621,8.186,0.416,11.792c-0.096,1.563-0.263,3.049-0.478,4.47
	c0.073,0.212,0.146,0.425,0.222,0.663c0.31,0.978,0.727,1.972,1.203,2.976c0.788-2.334,1.446-4.943,1.865-7.812
	c0.384-2.611,0.626-5.417,0.677-8.368c0.016-0.937,0.006-1.893-0.014-2.857c-0.041-0.026-0.082-0.056-0.123-0.081
	c-0.933-0.56-1.897-0.84-2.893-0.84C317.245,177.696,316.952,177.723,316.66,177.752z"/>
<path style="fill:#455942;" d="M162.382,318h-0.027l-0.017,0C162.354,318,162.357,318,162.382,318z"/>
<path style="fill:#455942;" d="M211.88,147.839l0.305,0.989c0.444-0.033,0.885-0.077,1.332-0.102
	C212.972,148.43,212.426,148.134,211.88,147.839z"/>
<path style="fill:#455942;" d="M187.198,313.715c-1.086,0.369-2.153,0.794-3.271,1.075l-3.323,0.932l-0.282,0.062
	c0.064,0.05,0.124,0.104,0.191,0.152c1.106,0.795,2.408,1.215,3.765,1.215c2.082,0,4.048-1.009,5.26-2.697
	c0.271-0.377,0.647-1.09,1.101-2.056c-0.077,0.033-0.155,0.063-0.232,0.097c-0.529,0.216-1.046,0.462-1.586,0.654L187.198,313.715z"
	/>
<path style="fill:#455942;" d="M391.934,219.444l0.91,1.952c0.595,1.151,0.997,2.386,1.445,3.595
	c0.727-0.942,1.355-1.843,1.868-2.697c0.373,1.742,1.025,3.37,1.959,4.883c0.634,1.029,1.346,1.949,2.124,2.777
	c-0.136-0.532-0.272-1.064-0.408-1.597l-0.759-2.225c-0.261-0.738-0.49-1.486-0.833-2.191c-0.651-1.422-1.212-2.88-2.014-4.223
	l-1.125-2.045c-0.41-0.661-0.853-1.301-1.278-1.951c-0.891-1.383-1.889-2.686-2.944-3.94c-0.268,0.5-0.536,1.001-0.819,1.493
	c-0.294,0.511-0.608,1.019-0.933,1.525c0.62,0.899,1.214,1.814,1.742,2.768C391.224,218.196,391.596,218.812,391.934,219.444z"/>
<path style="fill:#455942;" d="M370.057,198.999c0.337,0.146,0.682,0.273,1.013,0.435l0.978,0.51l1.951,1.017
	c0.644,0.348,1.249,0.769,1.876,1.144c0.124,0.08,0.251,0.156,0.377,0.233c0.441-0.58,0.875-1.124,1.3-1.62
	c-0.225-0.118-0.45-0.234-0.671-0.357c-0.68-0.35-1.335-0.744-2.036-1.048l-2.109-0.891l-1.052-0.443
	c-0.354-0.139-0.722-0.242-1.082-0.365l-2.167-0.706c-0.805-0.248-1.623-0.443-2.443-0.631c-0.021,0.027-0.045,0.053-0.066,0.079
	c-0.215,0.274-0.432,0.571-0.648,0.857c0.923,0.289,1.843,0.575,2.738,0.933L370.057,198.999z"/>
<path style="fill:#455942;" d="M310.13,137.861c-0.654-0.142-1.313-0.251-1.972-0.36c-1.569-2.031-3.275-3.992-5.116-5.86
	c-0.46-0.463-0.941-0.909-1.417-1.36l-1.926,7.109c4.87,4.908,8.763,10.462,11.367,16.285c1.411,3.123,2.452,6.372,3.17,9.481
	c0.722,3.221,1.29,6.496,1.772,9.553c0.054,0.361,0.101,0.714,0.152,1.072c0.459-0.049,0.918-0.085,1.374-0.085
	c0.961,0,1.901,0.163,2.818,0.455c-0.042-0.639-0.085-1.28-0.136-1.929c-0.277-3.222-0.597-6.482-1.126-9.966
	c-0.613-3.578-1.583-7.125-2.971-10.69c-0.91-2.322-2.003-4.628-3.252-6.89c1.682,0.356,3.354,0.763,5.018,1.198
	c2.908,0.798,5.773,1.756,8.583,2.862c2.79,1.15,5.529,2.433,8.172,3.901c2.629,1.489,5.164,3.14,7.595,4.94
	c2.41,1.825,4.7,3.811,6.832,5.962c2.14,2.146,4.056,4.505,5.796,6.988c1.737,2.485,3.294,5.114,4.524,7.903
	c1.252,2.779,2.217,5.689,2.936,8.674l0.466,2.258c0.127,0.754,0.22,1.51,0.333,2.269c0.093,0.531,0.131,1.086,0.169,1.641
	c0.386-0.47,0.785-0.939,1.203-1.409c-0.005-0.102,0.001-0.202-0.007-0.305c-0.044-0.797-0.07-1.602-0.132-2.401l-0.271-2.377
	c-0.443-3.164-1.258-6.28-2.343-9.305c-1.079-3.029-2.494-5.943-4.16-8.705c-1.678-2.753-3.562-5.395-5.694-7.825
	c-2.125-2.436-4.434-4.711-6.888-6.825c-2.483-2.076-5.117-3.968-7.848-5.709c-2.747-1.715-5.609-3.239-8.54-4.624
	c-2.951-1.336-5.969-2.533-9.056-3.53C316.456,139.316,313.322,138.446,310.13,137.861z"/>
<path style="fill:#455942;" d="M182.821,324.942c1.261-0.313,2.515-0.664,3.773-0.997c1.266-0.305,2.491-0.762,3.731-1.166
	l1.856-0.623c0.617-0.212,1.216-0.48,1.825-0.718c1.205-0.51,2.442-0.94,3.62-1.523l1.343-0.648l0.77,0.342
	c0.134,0.06,0.268,0.118,0.402,0.177l5.717-8.257c-0.768-0.278-1.518-0.598-2.268-0.92l-2.627-1.119l-2.238-0.953l-2.123,1.059
	l-1.866,0.931c-1.144,2.702-2.13,4.796-2.759,5.674c-1.774,2.472-4.652,3.947-7.698,3.947c-1.988,0-3.896-0.615-5.515-1.777
	c-0.738-0.53-1.371-1.152-1.907-1.833c-1.004,0.22-2.031,0.328-3.043,0.512l-1.712,0.274c-0.57,0.089-1.121,0.118-1.683,0.181
	c-1.128,0.104-2.214,0.239-3.379,0.326l-3.674,0.142l-0.919,0.034l-0.115,0.002l-0.057-0.002c0.032,0-0.028-0.004-0.019-0.006
	l-0.119,0.003l-0.435,0.005l-1.741-0.013c-0.56-0.014-1.119-0.047-1.679-0.07c-1.58,2.779-3.316,5.795-5.018,8.679
	c0.853,0.094,1.706,0.181,2.56,0.257c1.287,0.098,2.576,0.177,3.866,0.232l1.935,0.05l0.484,0.012l0.242,0.006l0.367-0.005
	l0.919-0.019l3.677-0.075c1.28-0.067,2.634-0.194,3.948-0.294c0.658-0.06,1.333-0.092,1.976-0.179l1.925-0.269
	c1.28-0.203,2.575-0.308,3.842-0.603L182.821,324.942z"/>
<path style="fill:#455942;" d="M149.569,317.103c-0.576-0.075-1.147-0.175-1.718-0.281c-3.932,2.279-7.765,4.556-10.696,6.406
	c1.129,0.355,2.262,0.692,3.403,0.996c1.244,0.364,2.513,0.618,3.77,0.93c1.269,0.243,2.531,0.54,3.809,0.734
	c0.625,0.112,1.251,0.213,1.879,0.307c1.605-2.708,3.298-5.63,4.917-8.462C153.137,317.582,151.345,317.389,149.569,317.103z"/>
<path style="fill:#455942;" d="M260.323,325.448c0.231-0.043,0.461-0.086,0.692-0.13c-0.148-0.097-0.289-0.205-0.434-0.307
	L260.323,325.448z"/>
<path style="fill:#455942;" d="M142.76,315.739c-8.967-2.225-17.544-6.166-24.623-11.878c-1.754-1.439-3.422-2.973-4.957-4.62
	c-1.519-1.659-2.907-3.42-4.158-5.263c-2.498-3.691-4.264-7.81-5.189-12.111l-1.299-6.046l-4.626,3.941
	c-2.531,2.156-5.292,4.033-8.241,5.597c-2.997,1.458-6.148,2.619-9.425,3.344c-0.806,0.178-1.591,0.266-2.389,0.411l-1.195,0.203
	l-1.358,0.091l-1.358,0.091l-0.679,0.046l-0.339,0.023l-0.038,0.003l-0.148-0.005l-2.529-0.073l-1.267-0.032l-1.255-0.162
	l-2.515-0.329c-0.833-0.143-1.647-0.38-2.474-0.562c-0.822-0.202-1.662-0.353-2.451-0.67l-2.408-0.833
	c-0.811-0.262-1.552-0.69-2.334-1.026c-1.582-0.648-3.018-1.574-4.497-2.432l-0.553-0.325l-0.518-0.378l-1.037-0.755l-1.04-0.754
	c-0.354-0.243-0.693-0.505-1.004-0.801c-1.276-1.144-2.614-2.232-3.735-3.542c-2.425-2.453-4.348-5.352-6.076-8.341l-1.15-2.326
	c-0.183-0.392-0.407-0.767-0.557-1.173l-0.459-1.215l-0.919-2.434l-0.68-2.513l-0.343-1.258c-0.098-0.419-0.147-0.839-0.224-1.258
	l-0.431-2.521c-0.141-0.845-0.133-1.794-0.207-2.686l-0.082-1.358l-0.016-0.679L32,249.064v-0.017v-0.163v-0.327l0.086-2.616
	c0.025-0.435,0.006-0.875,0.059-1.308l0.177-1.297l0.356-2.596l0.605-2.549c0.33-1.724,1.026-3.338,1.567-5.003
	c0.282-0.829,0.707-1.6,1.058-2.402c0.391-0.782,0.692-1.613,1.176-2.347c0.895-1.506,1.74-3.045,2.833-4.421
	c0.536-0.692,0.988-1.452,1.59-2.091l1.744-1.968c0.552-0.685,1.239-1.237,1.869-1.846c0.654-0.582,1.253-1.232,1.952-1.76
	c1.404-1.047,2.737-2.201,4.269-3.064c2.921-1.961,6.218-3.248,9.518-4.388l2.544-0.651l1.271-0.324l1.275-0.189l2.545-0.389
	c0.884-0.077,1.806-0.094,2.707-0.144l1.359-0.063l0.34-0.016l0.063-0.003l0.027,0.002l0.164,0.01l0.654,0.04l2.617,0.156
	c0.877,0.005,1.733,0.209,2.594,0.356l2.578,0.459l1.506,0.268l0.415-1.518l0.841-3.077c0.152-0.509,0.251-1.033,0.444-1.528
	l0.568-1.489c0.402-0.983,0.7-2.007,1.182-2.954l1.408-2.855c0.217-0.485,0.493-0.938,0.778-1.387l0.833-1.356
	c0.555-0.904,1.082-1.824,1.759-2.647l1.919-2.535l2.131-2.36c0.36-0.388,0.699-0.795,1.076-1.167l1.166-1.081
	c0.787-0.709,1.528-1.466,2.347-2.136c1.681-1.291,3.287-2.67,5.103-3.768c0.897-0.56,1.734-1.211,2.681-1.687l2.787-1.507
	l0.695-0.377l0.725-0.32l1.449-0.637l1.446-0.638l0.722-0.319l0.748-0.259c1.995-0.687,3.962-1.436,6.022-1.894
	c1.024-0.242,2.021-0.58,3.062-0.745l3.104-0.546c1.037-0.222,2.055-0.28,3.073-0.38c1.024-0.09,2.021-0.208,3.061-0.283
	l3.302-0.049l1.651-0.025l1.447,0.073c2.09,0.079,4.168,0.313,6.231,0.595c2.064,0.293,4.104,0.711,6.122,1.198
	c1,0.281,2.007,0.535,3,0.832l2.948,0.986l2.887,1.138l2.686,1.227c-0.132,1.519-0.193,2.952-0.2,4.273
	c-0.034,3.749,0.37,6.661,0.687,8.62c0.165,0.981,0.318,1.726,0.433,2.226c0.109,0.5,0.165,0.758,0.165,0.758
	s-0.019-0.264-0.056-0.774c-0.047-0.509-0.081-1.268-0.127-2.253c-0.087-1.97-0.06-4.867,0.337-8.491
	c0.405-3.621,1.326-7.961,3.027-12.685c1.708-4.72,4.312-9.779,7.857-14.78c3.558-4.996,8.171-9.836,13.599-14.246
	c2.707-2.218,5.698-4.231,8.837-6.127c1.565-0.959,3.21-1.817,4.848-2.72c0.41-0.203,0.825-0.406,1.236-0.61l9.014-15.312
	c-4.914-0.729-9.828-1.457-14.743-2.186c-0.198-0.037-0.438,0.095-0.473,0.33c-0.013,0.061-0.01,0.121,0.005,0.177
	c0.709,4.022,1.418,8.044,2.128,12.066c-1.405,0.783-2.764,1.613-4.091,2.476c-0.738-6.128-2.071-12.245-4.057-18.269
	c-13.524-41.037-54.815-67.39-97.623-64.021c-1.915,0.151-1.93,3.152,0,3c41.925-3.3,81.024,22.106,94.73,61.818
	c2.182,6.323,3.587,12.785,4.282,19.27c-2.695,1.885-5.259,3.855-7.597,5.973c-2.783,2.514-5.373,5.094-7.623,7.813
	c-0.612,0.721-1.076,1.315-1.63,2.027c-0.544,0.698-1.058,1.392-1.551,2.08c-0.985,1.386-1.921,2.766-2.767,4.163
	c-3.437,5.556-5.696,11.155-7.032,16.249c-0.047,0.173-0.084,0.34-0.128,0.512c-0.214,0.206-0.44,0.4-0.651,0.609l-0.687-0.281
	l-3.307-1.15l-3.358-0.973c-1.128-0.289-2.267-0.531-3.399-0.795c-2.281-0.455-4.575-0.826-6.883-1.058
	c-2.306-0.23-4.623-0.517-6.935-0.491L140.326,160h-0.433l-0.348,0.159l-0.206,0.091l-1.648,0.146l-3.296,0.235
	c-1.149,0.135-2.334,0.331-3.496,0.493c-1.166,0.171-2.344,0.316-3.452,0.607l-3.367,0.773c-1.125,0.241-2.206,0.662-3.308,0.984
	c-2.216,0.621-4.33,1.54-6.456,2.403l-0.796,0.325l-0.77,0.386l-1.539,0.773l-1.536,0.774l-0.766,0.388l-0.736,0.447l-2.936,1.788
	c-0.497,0.284-0.964,0.615-1.424,0.959l-1.393,1.004c-1.904,1.274-3.589,2.837-5.333,4.31c-0.851,0.762-1.623,1.612-2.435,2.414
	l-1.202,1.22c-0.388,0.418-0.738,0.873-1.108,1.307l-2.18,2.64l-1.95,2.816c-0.681,0.916-1.237,1.914-1.803,2.906l-0.852,1.483
	c-0.29,0.491-0.571,0.986-0.793,1.514l-1.425,3.11c-0.485,1.031-0.783,2.141-1.181,3.207l-0.56,1.614
	c-0.19,0.537-0.285,1.103-0.432,1.653l-0.238,0.985c-25.106-15.75-41.326-42.565-43.281-72.435
	c-2.292-35.014,16.92-68.551,47.338-85.548c1.532-0.856,0.466-3.105-1.156-2.742C37.39,53.587,5.292,97.382,9.748,144.816
	c2.59,27.566,17.443,51.484,38.721,66.918c-1.106,0.753-2.149,1.596-3.225,2.392c-0.75,0.562-1.398,1.247-2.102,1.866
	c-0.679,0.646-1.414,1.237-2.012,1.961l-1.88,2.092c-0.646,0.682-1.141,1.486-1.719,2.224c-1.176,1.468-2.099,3.104-3.066,4.713
	c-0.52,0.785-0.855,1.668-1.279,2.504c-0.387,0.854-0.861,1.672-1.184,2.554c-0.625,1.768-1.399,3.494-1.801,5.336
	c-0.236,0.91-0.488,1.817-0.708,2.731l-0.449,2.786l-0.222,1.395c-0.066,0.466-0.068,0.938-0.105,1.406l-0.168,2.82l-0.021,0.353
	l-0.01,0.176l-0.003,0.044l0.003,0.128l0.003,0.085l0.026,0.68l0.053,1.36c0.054,0.916,0.029,1.791,0.147,2.741l0.376,2.861
	c0.07,0.475,0.115,0.961,0.208,1.427l0.323,1.38l0.652,2.763l0.909,2.692l0.461,1.346c0.152,0.45,0.378,0.869,0.564,1.305
	l1.177,2.593c1.786,3.341,3.794,6.613,6.35,9.455c1.189,1.501,2.612,2.78,3.988,4.112c0.335,0.343,0.701,0.652,1.082,0.942
	l1.125,0.894l1.128,0.893l0.565,0.446l0.603,0.393c1.613,1.04,3.198,2.139,4.947,2.957c0.865,0.42,1.692,0.931,2.594,1.274
	l2.692,1.068c0.887,0.393,1.829,0.616,2.758,0.888c0.933,0.252,1.857,0.555,2.802,0.761l2.863,0.507
	c0.478,0.081,0.956,0.173,1.435,0.243l1.45,0.107l2.907,0.206l0.182,0.012l0.045,0.003l0.181-0.003l0.085-0.002l0.34-0.008
	l0.68-0.016l1.361-0.032l1.361-0.032l1.501-0.165c0.995-0.123,2.021-0.207,2.994-0.378c3.852-0.673,7.604-1.862,11.202-3.434
	c1.858-0.87,3.653-1.867,5.386-2.965c1.082,3.385,2.584,6.627,4.455,9.611c1.414,2.273,3.029,4.402,4.776,6.401
	c1.762,1.984,3.666,3.822,5.663,5.539c6.139,5.212,13.193,9.121,20.633,11.869c2.574-1.71,6.141-3.878,9.904-6.09
	C143.224,315.849,142.99,315.802,142.76,315.739z"/>
<path style="fill:#455942;" d="M278.486,315.342c0.128-1.176,0.049-2.326-0.203-3.418c8.5-2.478,19.669-6.255,21.81-6.255
	c0.161,0,0.271,0.021,0.325,0.066c0.896,0.743,1.808,1.162,2.622,1.162c0.299,0,0.585-0.057,0.852-0.174
	c0.994-0.438,1.539-1.64,1.617-3.23c0.014-0.297-0.004-0.62-0.022-0.942l-1.438,0.123l-0.806,0.077l-0.916,0.037l-1.853,0.065
	l-0.463,0.054l-0.161,0.064l-0.036-0.063l-0.106-0.094l-0.846-0.042c-1.128-0.072-2.257-0.066-3.382-0.192l-3.373-0.412
	l-1.851-0.226l-1.665,1.059l-4.783,3.043c-1.653,0.923-3.352,1.774-5.022,2.67c-0.819,0.478-1.733,0.779-2.596,1.175l-2.621,1.125
	c-0.228,0.096-0.456,0.192-0.683,0.29c0.642,1.01,0.962,2.235,0.822,3.515c-0.305,2.794-2.678,4.871-5.427,4.871
	c-0.197,0-0.396-0.011-0.597-0.033c-2.703-0.295-4.728-2.527-4.858-5.161c-0.044,0.011-0.088,0.022-0.131,0.034l-2.772,0.721
	l-1.818,0.344c0.006,0.046,0.005,0.094,0.012,0.139c-8.467,2.478-19.441,6.183-21.563,6.183c-0.161,0-0.271-0.021-0.325-0.066
	c-0.896-0.743-1.808-1.162-2.622-1.162c-0.299,0-0.585,0.056-0.852,0.174c-0.994,0.438-1.539,1.64-1.617,3.23
	c-0.046,0.952,0.096,2.05,0.389,3.199c0.729,0.056,1.456,0.13,2.185,0.18l3.176,0.09l1.588,0.043l0.397,0.011l0.199,0.005
	l0.283-0.002l0.095-0.003l0.756-0.027l6.051-0.216c0.495-0.034,1.013-0.094,1.52-0.141c3.682-2.187,8.211-4.788,12.082-7.133
	c1.204,1.723,2.927,3.073,4.971,3.801c-0.04,0.165-0.08,0.333-0.12,0.499l0.527-0.143c2.052-0.562,4.118-1.069,6.109-1.844
	l3.012-1.07l1.505-0.537c0.493-0.202,0.978-0.428,1.467-0.641l2.577-1.146c-0.689-0.385-1.371-0.765-2.035-1.129
	C278.178,317.089,278.389,316.235,278.486,315.342z"/>
<path style="fill:#455942;" d="M401.78,240.454l-0.039-0.56l-0.156-2.238c-0.033-0.379-0.036-0.734-0.094-1.132l-0.076-0.503
	c-0.925-0.566-1.813-1.208-2.651-1.934c-1.022-0.886-1.961-1.897-2.812-3.012c0.172,0.868,0.337,1.736,0.461,2.595l0.211,2.062
	l0.11,1.027c0.036,0.344,0.021,0.739,0.034,1.107l0.038,2.243l0.01,0.561l0.005,0.28c-0.005-0.205-0.003-0.038-0.005-0.075
	l-0.003,0.033l-0.005,0.066l-0.011,0.132l-0.085,1.059c-0.146,2.825-0.604,5.619-1.298,8.338c-0.713,2.718-1.661,5.364-2.868,7.884
	c-1.212,2.519-2.657,4.92-4.331,7.142l-1.288,1.642c-0.219,0.27-0.416,0.557-0.652,0.812l-0.721,0.754
	c-0.979,0.987-1.859,2.067-2.955,2.927c-1.06,0.893-2.049,1.868-3.218,2.619c-1.133,0.794-2.221,1.647-3.446,2.291
	c-1.194,0.689-2.357,1.432-3.638,1.951c-1.251,0.573-2.482,1.19-3.804,1.58c-1.298,0.448-2.581,0.938-3.933,1.194
	c-1.333,0.314-2.675,0.683-3.955,0.788c-1.309,0.16-2.497,0.418-4.082,0.407l-2.242,0.075l-0.56,0.019l-0.146,0.005
	c-0.014,0-0.022,0,0-0.001l-0.064-0.003l-0.128-0.006l-1.021-0.05c-2.721-0.133-5.425-0.53-8.073-1.179l-2.556-0.627l-1.849,2.377
	c-0.69,0.887-1.299,1.831-2.036,2.681c-0.726,0.858-1.432,1.731-2.237,2.522c-0.394,0.401-0.768,0.822-1.177,1.208l-1.246,1.141
	c-0.803,0.79-1.734,1.44-2.592,2.168c-0.902,0.676-1.824,1.329-2.756,1.963c-0.973,0.575-1.889,1.239-2.901,1.748
	c-0.992,0.541-1.978,1.092-3.017,1.543c-0.514,0.235-1.02,0.487-1.539,0.71l-1.578,0.622c-1.039,0.447-2.132,0.754-3.201,1.117
	c-1.07,0.363-2.184,0.592-3.27,0.899c-1.104,0.244-2.217,0.456-3.326,0.669c-0.174,0.022-0.352,0.049-0.527,0.073
	c0.037,0.503,0.05,0.995,0.027,1.469c-0.137,2.812-1.378,4.937-3.404,5.829c-0.646,0.284-1.339,0.429-2.062,0.429
	c-1.172,0-2.381-0.387-3.548-1.129c-2.086,0.426-7.503,2.103-11.586,3.368c-2.113,0.654-4.277,1.324-6.36,1.951
	c0.006,0.527-0.02,1.055-0.078,1.582c-0.027,0.245-0.06,0.489-0.1,0.732c0.616,0.344,1.246,0.701,1.872,1.055
	c1.849-1.013,3.717-1.989,5.541-3.045l3.796-2.489l2.069,0.226c1.333,0.128,2.682,0.117,4.021,0.176l1.006,0.031l0.126,0.004
	l0.266-0.001l0.232-0.009l0.463-0.017l1.852-0.068l0.936-0.039l1.04-0.095l2.078-0.198c1.375-0.144,2.662-0.406,3.995-0.61
	c1.311-0.28,2.622-0.567,3.921-0.891c1.284-0.388,2.589-0.703,3.85-1.161c1.261-0.458,2.539-0.864,3.763-1.419l1.851-0.787
	c0.609-0.28,1.205-0.591,1.807-0.886c1.214-0.571,2.374-1.249,3.535-1.922c1.179-0.641,2.263-1.447,3.394-2.166
	c1.093-0.78,2.17-1.585,3.223-2.419c1.011-0.888,2.084-1.7,3.029-2.663l1.452-1.402c0.476-0.475,0.917-0.987,1.375-1.48
	c0.932-0.972,1.763-2.037,2.604-3.091c0.272-0.334,0.517-0.689,0.77-1.038c2.278,0.346,4.579,0.546,6.882,0.578l1.221,0.015
	l0.153,0.002l0.351-0.007l0.28-0.019l0.56-0.038l2.238-0.152c1.415-0.031,3.168-0.366,4.818-0.635
	c1.701-0.223,3.236-0.694,4.8-1.122c1.58-0.371,3.082-0.987,4.591-1.57c1.533-0.526,2.964-1.286,4.406-2.012
	c1.472-0.672,2.815-1.574,4.179-2.432c1.4-0.806,2.631-1.855,3.905-2.836c1.307-0.942,2.422-2.11,3.598-3.201
	c1.21-1.058,2.193-2.34,3.262-3.53l0.787-0.907c0.257-0.307,0.474-0.645,0.713-0.966l1.397-1.951
	c3.605-5.277,6.167-11.25,7.429-17.47c0.622-3.108,0.964-6.269,0.962-9.423l0.028-1.181l0.004-0.403L401.78,240.454z"/>
<path style="fill:#455942;" d="M184.67,77.646c-0.001,0.002-0.001,0.003-0.001,0.005c-0.004,0.021-0.007,0.041-0.007,0.063
	c-0.01,0.072-0.004,0.149,0.043,0.229c3,5.196,6,10.392,9,15.588c0.116,0.2,0.428,0.258,0.589,0.076
	c6.294-7.098,12.588-14.196,18.883-21.294c0.254-0.287,0.008-0.703-0.365-0.627c-9.294,1.902-18.588,3.804-27.883,5.706
	C184.77,77.424,184.693,77.528,184.67,77.646z"/>
<path style="fill:#455942;" d="M174.057,65.259c0.229,0.193,0.519,0.107,0.627-0.165c3.487-8.823,6.974-17.646,10.461-26.468
	c0.124-0.315-0.289-0.584-0.551-0.424c-8.083,4.966-16.166,9.932-24.25,14.898c-0.072,0.044-0.113,0.103-0.141,0.165
	c-0.083,0.129-0.09,0.294,0.065,0.424C164.864,57.546,169.46,61.403,174.057,65.259z"/>
<path style="fill:#455942;" d="M243.779,109.653c-1.092,0.002-2.178,0.11-3.266,0.161c-1.088,0.049-2.17,0.148-3.249,0.266
	c-0.752,0.082-1.503,0.155-2.252,0.244l-2.289,7.421c0.735-0.099,1.47-0.197,2.207-0.296c0.992-0.153,1.995-0.211,2.995-0.311
	c1-0.101,2.004-0.183,3.011-0.216c1.006-0.035,2.013-0.13,3.022-0.119c4.036-0.109,8.088,0.132,12.099,0.615
	c8.03,0.891,15.936,2.946,23.169,6.184c0.925,0.383,1.784,0.813,2.643,1.238l0.874,0.427l3.011-6.297
	c-1.195-0.623-2.404-1.225-3.64-1.782c-7.897-3.625-16.49-5.956-25.211-7C252.538,109.706,248.143,109.494,243.779,109.653z"/>
<path style="fill:#455942;" d="M129.134,39.316c5.625,2.047,11.25,4.095,16.875,6.142c0.237,0.086,0.468-0.134,0.475-0.362
	c0.259-9.483,0.518-18.967,0.777-28.45c0.008-0.304-0.432-0.528-0.64-0.265c-5.897,7.43-11.793,14.861-17.69,22.291
	c-0.128,0.158-0.126,0.431,0.069,0.571C129.04,39.278,129.085,39.301,129.134,39.316z"/>
<path style="fill:#455942;" d="M94.8,36.974L94.791,37H95h17.791c0.234,0,0.439-0.28,0.362-0.513c-3-9-6-18.019-9-27.019
	c-0.119-0.357-0.604-0.367-0.723-0.01c-2.961,8.884-5.922,17.763-8.884,26.646C94.095,36.331,94.18,36.871,94.8,36.974z"/>
    <path style="fill:#ffffff;" d="M548.612,191.132c0.871-0.414,1.605-0.964,2.207-1.648s0.902-1.544,0.902-2.581
	c0-0.912-0.125-1.7-0.373-2.364c-0.248-0.663-0.746-1.223-1.492-1.68c-0.748-0.456-1.814-0.798-3.203-1.026
	c-1.391-0.228-3.205-0.342-5.443-0.342c-0.332,0-1.027,0.042-2.084,0.125c-1.057,0.083-2.301,0.197-3.732,0.342
	c-1.43,0.146-2.965,0.291-4.602,0.436c-1.639,0.146-3.203,0.291-4.696,0.436c-1.493,0.146-2.811,0.28-3.95,0.404
	c-1.141,0.125-1.959,0.208-2.457,0.249c0.29-0.912,0.653-2,1.089-3.266c0.436-1.264,0.891-2.591,1.368-3.98
	c0.477-1.389,0.942-2.768,1.399-4.137c0.456-1.368,0.871-2.622,1.244-3.763c0.373-1.14,0.674-2.104,0.902-2.893
	c0.227-0.787,0.342-1.265,0.342-1.431c0-0.622-0.031-1.275-0.094-1.959c-0.062-0.684-0.259-1.295-0.591-1.835
	c-0.332-0.538-0.87-0.984-1.617-1.337c-0.746-0.352-1.804-0.529-3.172-0.529c-2.115,0-3.815,0.56-5.101,1.679
	c-1.286,1.12-2.343,2.965-3.172,5.536c-0.582,1.783-1.224,3.691-1.929,5.722c-0.705,2.032-1.399,3.95-2.084,5.754
	c-0.684,1.804-1.296,3.37-1.835,4.696c-0.539,1.328-0.933,2.219-1.182,2.675l-13.124,0.56c-0.788,0.042-1.524,0.146-2.208,0.311
	c-0.685,0.166-1.286,0.446-1.804,0.839c-0.52,0.395-0.934,0.913-1.244,1.555c-0.312,0.644-0.467,1.441-0.467,2.395
	c0,1.493,0.342,2.644,1.026,3.452s1.544,1.4,2.581,1.773c1.036,0.373,2.167,0.591,3.391,0.653c1.223,0.063,2.373,0.094,3.452,0.094
	c0.953,0,1.699,0.031,2.239,0.093c0.538,0.062,0.933,0.166,1.182,0.311c0.249,0.146,0.404,0.321,0.466,0.528
	c0.031,0.102,0.03,0.224,0.046,0.336c-0.255,0.259-0.509,0.516-0.792,0.815c-0.768,0.809-1.731,1.773-2.893,2.893
	c-1.368,1.327-2.902,2.727-4.603,4.198c-1.701,1.473-3.463,2.955-5.287,4.447c-1.825,1.493-3.639,2.945-5.442,4.354
	c-1.804,1.411-3.494,2.686-5.069,3.826c-1.577,1.141-2.955,2.115-4.137,2.923s-2.084,1.359-2.706,1.648
	c-0.497-0.871-1.182-2.053-2.052-3.545c-0.871-1.493-1.795-3.058-2.769-4.696c-0.975-1.638-1.928-3.244-2.861-4.821
	c-0.933-1.575-1.71-2.902-2.332-3.98c-1.244-2.198-1.888-4.603-1.929-7.215c0.456-0.498,1.078-1.089,1.866-1.773
	c0.787-0.684,1.617-1.42,2.488-2.208c0.58-0.539,1.265-1.161,2.053-1.866c0.787-0.705,1.533-1.471,2.239-2.301
	c0.704-0.829,1.306-1.72,1.804-2.675c0.497-0.953,0.746-1.928,0.746-2.923c0-1.202-0.104-2.229-0.311-3.079
	c-0.208-0.849-0.571-1.555-1.089-2.115c-0.519-0.56-1.255-0.974-2.208-1.244c-0.954-0.27-2.177-0.404-3.67-0.404
	c-1.12,0-2.437,0.435-3.95,1.306c-1.514,0.871-3.017,2.021-4.509,3.452c-1.493,1.431-2.852,3.059-4.074,4.883
	c-1.224,1.825-2.105,3.691-2.644,5.598c-0.581,1.535-0.995,3.048-1.244,4.541c-0.146,0.878-0.236,1.738-0.296,2.587
	c-0.202,0.174-0.409,0.341-0.606,0.523c-0.809,0.747-1.503,1.431-2.083,2.053c-0.582,0.622-0.913,0.933-0.996,0.933
	c-2.446,2.53-4.873,4.883-7.277,7.06c-2.405,2.177-4.811,4.064-7.215,5.66c-2.405,1.597-4.811,2.852-7.216,3.763
	c-2.405,0.913-4.831,1.369-7.277,1.369c-1.078,0-2.053-0.311-2.923-0.933c-0.871-0.622-1.617-1.42-2.239-2.395
	c-0.622-0.974-1.1-2.063-1.431-3.266c-0.333-1.202-0.498-2.384-0.498-3.545c0-1.658,0.187-3.4,0.56-5.225
	c0.374-1.824,0.778-3.607,1.213-5.349c0.436-1.742,0.829-3.411,1.183-5.007c0.352-1.596,0.528-2.975,0.528-4.136
	c0-0.539-0.187-1.285-0.56-2.239c-0.373-0.954-0.819-1.917-1.338-2.893c-0.519-0.974-1.078-1.886-1.679-2.737
	c-0.602-0.849-1.151-1.44-1.648-1.772c-0.747-0.373-1.597-0.684-2.551-0.933c-0.954-0.249-1.949-0.436-2.985-0.56
	c-1.037-0.125-2.084-0.218-3.142-0.28c-1.057-0.062-2.083-0.093-3.078-0.093c-1.825,0-3.909,0.478-6.252,1.431
	c-2.343,0.955-4.717,2.208-7.122,3.763c-2.406,1.555-4.707,3.318-6.904,5.287c-2.199,1.97-4.085,3.95-5.661,5.94
	c-0.41,0.524-0.823,1.073-1.238,1.638c-0.033,0.015-0.065,0.026-0.099,0.042c-1.141,0.54-2.343,1.244-3.608,2.115
	c-1.265,0.871-2.55,1.877-3.856,3.017c-1.306,1.141-2.603,2.333-3.887,3.577c-3.567,3.401-6.842,6.313-9.828,8.739
	c-2.985,2.426-5.847,4.614-8.583,6.562c-4.064,2.903-8.283,5.225-12.658,6.967c-4.375,1.742-8.926,2.612-13.653,2.612
	c-1.493,0-3.11-0.871-4.852-2.612c-1.535-1.576-2.301-3.421-2.301-5.536c0-2.28,0.218-4.582,0.653-6.904
	c0.436-2.322,1.016-4.592,1.742-6.811c0.725-2.218,1.565-4.312,2.519-6.282c0.954-1.969,1.969-3.742,3.048-5.318
	c1.078-1.576,2.167-2.902,3.266-3.981c1.098-1.078,2.146-1.804,3.141-2.177c0.332,0.54,0.694,1.431,1.088,2.675
	c0.394,1.244,0.922,2.509,1.586,3.794c0.663,1.286,1.493,2.416,2.488,3.39c0.995,0.975,2.26,1.462,3.794,1.462
	c1.036,0,1.886-0.321,2.55-0.964c0.663-0.642,1.191-1.42,1.586-2.333c0.394-0.912,0.663-1.875,0.809-2.892
	c0.145-1.016,0.218-1.876,0.218-2.582c0-1.327-0.664-3.441-1.99-6.344c-0.664-1.451-1.39-2.809-2.177-4.074
	c-0.788-1.265-1.628-2.374-2.519-3.328c-0.892-0.954-1.804-1.71-2.737-2.271c-0.933-0.56-1.897-0.84-2.893-0.84
	c-1.493,0-3.027,0.384-4.603,1.151c-1.577,0.768-3.11,1.742-4.603,2.923c-1.493,1.182-2.914,2.499-4.261,3.95
	c-1.348,1.452-2.519,2.841-3.514,4.167c-3.981,5.309-7.112,10.709-9.393,16.204c-2.281,5.495-3.421,10.958-3.421,16.39
	c0,2.861,0.425,5.588,1.275,8.18c0.85,2.592,2.104,4.852,3.763,6.78c1.658,1.928,3.69,3.463,6.096,4.603
	c2.404,1.141,5.163,1.711,8.273,1.711c4.768,0,9.288-0.643,13.56-1.928c4.271-1.285,8.273-3.11,12.005-5.474
	c2.488-1.575,5.038-3.358,7.65-5.349c2.613-1.99,5.266-4.125,7.962-6.407c1.244-1.036,2.301-1.917,3.172-2.644
	c0.768-0.64,1.503-1.258,2.223-1.867c-0.599,2.433-0.917,4.829-0.917,7.185c0,1.493,0.238,3.172,0.715,5.038
	c0.476,1.866,1.202,3.629,2.177,5.287c0.974,1.659,2.208,3.059,3.701,4.199c1.493,1.141,3.234,1.71,5.225,1.71
	c1.244,0,2.602-0.176,4.074-0.529c1.472-0.352,2.933-0.809,4.385-1.368c1.451-0.56,2.83-1.171,4.136-1.835
	c1.306-0.663,2.415-1.306,3.328-1.928c1.327-0.912,2.757-2,4.292-3.266c1.534-1.265,3.017-2.602,4.447-4.012
	c1.431-1.409,2.747-2.83,3.95-4.261c1.202-1.43,2.177-2.768,2.924-4.012c0.373,1.742,1.025,3.37,1.959,4.883
	c0.933,1.514,2.021,2.81,3.266,3.888c1.244,1.079,2.591,1.928,4.043,2.55c1.451,0.622,2.882,0.933,4.292,0.933
	c3.316,0,6.447-0.518,9.392-1.555c2.944-1.036,5.764-2.395,8.46-4.074c2.695-1.68,5.276-3.608,7.744-5.785
	c2.467-2.177,4.902-4.385,7.309-6.625c0.746-0.747,1.482-1.493,2.208-2.239c0.725-0.747,1.378-1.44,1.959-2.083
	c0.278-0.308,0.54-0.599,0.789-0.878c0.007,0.013,0.013,0.026,0.019,0.039c0.373,0.706,0.892,1.576,1.555,2.612
	c0.663,1.037,1.369,2.146,2.115,3.328c0.746,1.182,1.503,2.385,2.271,3.608c0.767,1.224,1.462,2.354,2.084,3.39
	c0.622,1.037,1.129,1.95,1.523,2.737c0.394,0.789,0.591,1.328,0.591,1.617c0,1.244-0.249,2.302-0.746,3.172
	c-0.498,0.871-1.213,1.648-2.146,2.333c-0.933,0.684-2.032,1.317-3.296,1.897c-1.266,0.581-2.686,1.182-4.261,1.804
	c-2.406,0.995-4.489,1.959-6.252,2.892c-1.763,0.933-3.214,1.897-4.353,2.893c-1.142,0.995-1.98,2.062-2.52,3.203
	c-0.539,1.14-0.809,2.436-0.809,3.888c0,0.58,0.146,1.151,0.436,1.71c0.29,0.56,0.746,1.058,1.368,1.493
	c0.622,0.436,1.431,0.788,2.426,1.058c0.996,0.269,2.219,0.404,3.67,0.404c1.742,0,3.722-0.457,5.94-1.369
	c2.218-0.913,4.612-2.219,7.185-3.918c0.787-0.54,2.114-1.535,3.98-2.986c1.866-1.452,4.012-3.151,6.438-5.1
	s5.008-4.053,7.744-6.313c2.737-2.26,5.359-4.447,7.868-6.562c2.509-2.115,4.779-4.053,6.812-5.816
	c2.031-1.762,3.565-3.141,4.603-4.136c1.742-1.7,3.546-3.515,5.412-5.443c0.237-0.245,0.464-0.489,0.695-0.733
	c-0.366,1.529-0.708,3.034-1.007,4.496c-0.373,1.825-0.694,3.556-0.964,5.194c-0.271,1.639-0.404,3.079-0.404,4.323
	c0,1.162,0.031,2.468,0.094,3.919c0.062,1.452,0.248,2.923,0.56,4.416c0.311,1.493,0.798,2.955,1.462,4.385
	c0.662,1.431,1.586,2.696,2.768,3.794s2.675,1.99,4.479,2.674c1.804,0.685,4.012,1.026,6.624,1.026c2.695,0,5.256-0.488,7.682-1.461
	c2.427-0.975,4.624-2.115,6.594-3.421c1.969-1.306,3.67-2.633,5.1-3.98c1.432-1.347,2.479-2.416,3.143-3.204
	c1.449-1.7,2.652-3.234,3.607-4.603c0.953-1.368,1.43-2.881,1.43-4.541c0-0.829-0.229-1.513-0.684-2.053
	c-0.457-0.538-1.307-0.809-2.551-0.809c-0.787,0-1.545,0.135-2.27,0.404c-0.727,0.271-1.4,0.602-2.021,0.996
	c-0.623,0.395-1.203,0.839-1.742,1.337c-0.539,0.498-1.018,0.975-1.43,1.431c-1.328,1.41-2.655,2.603-3.981,3.577
	c-1.328,0.975-2.581,1.773-3.764,2.395c-1.182,0.622-2.26,1.079-3.234,1.369c-0.975,0.291-1.794,0.436-2.457,0.436
	c-0.954,0-1.741-0.363-2.363-1.089c-0.622-0.725-1.119-1.586-1.493-2.581c-0.373-0.995-0.632-2.021-0.777-3.079
	c-0.146-1.057-0.218-1.938-0.218-2.644c0-0.871,0.114-2.062,0.343-3.577c0.228-1.513,0.538-3.203,0.933-5.069
	c0.394-1.866,0.818-3.825,1.275-5.878c0.456-2.052,0.922-4.063,1.399-6.033c0.477-1.969,0.933-3.804,1.368-5.505
	c0.436-1.7,0.798-3.11,1.089-4.229c0.124,0,0.995-0.114,2.612-0.342c1.617-0.228,3.68-0.498,6.188-0.809
	c2.508-0.311,5.318-0.643,8.428-0.995c3.111-0.352,6.221-0.632,9.33-0.84c0.83-0.083,1.742-0.218,2.738-0.404
	C546.807,191.847,547.74,191.547,548.612,191.132z M394.105,204.691c-1.12,2.986-2.468,5.847-4.043,8.584
	c-1.286,2.239-2.872,4.427-4.759,6.562c-1.887,2.136-3.836,4.023-5.847,5.66c-2.012,1.639-4.012,2.965-6.002,3.981
	c-1.99,1.017-3.774,1.524-5.349,1.524c-0.54,0-0.975-0.125-1.306-0.373c-0.333-0.249-0.591-0.56-0.778-0.933
	c-0.187-0.373-0.311-0.798-0.373-1.275c-0.062-0.477-0.093-0.964-0.093-1.462c0-1.99,0.436-4.292,1.306-6.904
	c0.871-2.612,1.969-5.225,3.297-7.837c1.327-2.612,2.768-5.079,4.323-7.402c1.555-2.322,3.017-4.167,4.385-5.536
	c2.446-2.529,4.799-4.53,7.06-6.002c2.26-1.472,4.758-2.208,7.496-2.208c0.249,0,0.518,0.155,0.809,0.466
	c0.29,0.311,0.549,0.684,0.777,1.12c0.228,0.436,0.414,0.902,0.56,1.399c0.146,0.498,0.218,0.933,0.218,1.306
	C395.783,198.596,395.224,201.706,394.105,204.691z"/>
</svg>
